# xmcd CD database file
#
# Track frame offsets:
#	150
#	16754
#	32729
#	42555
#	73446
#	83197
#	97353
#	109841
#	117073
#
# Disc length: 1629 seconds
#
# Revision: 0
# Processed by: cddbd v1.5.1PL0 Copyright (c) Steve Scherf et al.
# Submitted via: CDex 1.51
#
DISCID=7b065b09
DTITLE=Martini Kings - Happy Hour
DYEAR=2004
DGENRE=Jazz
TTITLE0=Stardust
TTITLE1=Tiny Bubbles
TTITLE2=So Danco Samba
TTITLE3=Quiet Village
TTITLE4=Cuchy Frito Man
TTITLE5=Lover's Luau
TTITLE6=Sleepwalk
TTITLE7=Wave
TTITLE8=Tequila
EXTD=YEAR: 2004
EXTT0=
EXTT1=
EXTT2=
EXTT3=
EXTT4=
EXTT5=
EXTT6=
EXTT7=
EXTT8=
PLAYORDER=
